<svg xmlns="http://www.w3.org/2000/svg" width="245px" height="42px" viewBox="0 0 245 42">
<polygon fill="#FFFFFF" points="146.448,0.081 146.448,7.489 149.926,7.489 149.926,0.081 151.513,0.081 151.513,7.526 
152.329,7.568 152.24,10.95 151.022,10.95 150.934,8.796 144.852,8.796 144.852,0.081 "/>
<polygon fill="#FFFFFF" points="158.78,4.932 155.496,4.932 155.496,7.487 159.175,7.487 159.175,8.794 153.909,8.794
153.909,0.081 158.978,0.081 158.978,1.384 155.496,1.384 155.496,3.636 158.78,3.636 "/>
<polygon fill="#FFFFFF" points="162.479,0.081 162.479,3.573 166.167,3.573 166.167,0.081 167.756,0.081 167.756,8.796
166.167,8.796 166.167,4.954 162.479,4.954 162.479,8.796 160.888,8.796 160.888,0.081 "/>
<polygon fill="#FFFFFF" points="171.574,1.41 169.086,1.41 169.086,0.081 175.668,0.081 175.668,1.41 173.156,1.41 173.156,8.794
171.574,8.794 "/>
<path fill="#FFFFFF" d="M177.016,0.195c0.575-0.101,1.367-0.18,2.427-0.18c1.168,0,2.004,0.246,2.563,0.711
c0.519,0.426,0.849,1.112,0.849,1.924c0,0.834-0.258,1.501-0.735,1.964c-0.641,0.638-1.631,0.946-2.751,0.946
c-0.304,0-0.56-0.015-0.779-0.063v3.296h-1.573V0.195z M178.589,4.242c0.211,0.065,0.452,0.08,0.779,0.08
c1.188,0,1.913-0.594,1.913-1.608c0-0.969-0.671-1.469-1.771-1.469c-0.445,0-0.753,0.035-0.921,0.076V4.242z"/>
<path fill="#FFFFFF" d="M152.431,20.757c-0.052-1.126-0.115-2.483-0.102-3.663h-0.039c-0.28,1.067-0.645,2.241-1.038,3.341
l-1.276,3.771h-1.215l-1.162-3.722c-0.334-1.112-0.648-2.301-0.888-3.39h-0.02c-0.039,1.141-0.093,2.521-0.156,3.715l-0.19,3.497
h-1.493l0.588-8.709h2.09l1.14,3.502c0.309,1.021,0.584,2.06,0.801,3.028h0.037c0.237-0.945,0.534-2.02,0.871-3.038l1.202-3.492
h2.066l0.506,8.709h-1.555L152.431,20.757z"/>
<path fill="#FFFFFF" d="M163.772,19.863c0,2.92-1.773,4.588-4.163,4.588c-2.471,0-4.022-1.883-4.022-4.429
c0-2.692,1.691-4.583,4.152-4.583C162.271,15.439,163.772,17.369,163.772,19.863 M157.268,19.977c0,1.786,0.888,3.196,2.418,3.196
c1.534,0,2.404-1.437,2.404-3.256c0-1.644-0.812-3.196-2.404-3.196C158.107,16.721,157.268,18.183,157.268,19.977"/>
<path fill="#FFFFFF" d="M171.555,15.597v8.711h-1.587v-7.406h-2.382v2.33c0,2.078-0.192,3.979-1.456,4.783
c-0.393,0.215-0.944,0.414-1.552,0.414l-0.213-1.281c0.403-0.052,0.749-0.25,0.959-0.463c0.61-0.611,0.706-1.992,0.706-3.337v-3.751
H171.555z"/>
<polygon fill="#FFFFFF" points="178.589,20.444 175.308,20.444 175.308,23.002 178.976,23.002 178.976,24.306 173.712,24.306
173.712,15.597 178.785,15.597 178.785,16.901 175.308,16.901 175.308,19.15 178.589,19.15 "/>
<path fill="#FFFFFF" d="M182.265,15.597v3.738h0.24l2.679-3.738h1.915l-3.152,3.932c1.264,0.233,1.795,1.059,2.194,2.16
c0.326,0.91,0.582,1.798,0.983,2.619h-1.708c-0.306-0.591-0.499-1.317-0.723-1.974c-0.35-1.06-0.816-1.825-2.068-1.825h-0.36v3.799
h-1.578v-8.711H182.265z"/>
<path fill="#FFFFFF" d="M189.62,15.597l1.475,3.401c0.231,0.564,0.425,1.082,0.614,1.602h0.05c0.119-0.399,0.277-0.942,0.497-1.627
l1.124-3.376h1.685l-1.719,4.38c-0.509,1.267-1.049,2.592-1.681,3.402c-0.57,0.71-1.257,1.116-2.162,1.116
c-0.393,0-0.625-0.044-0.812-0.12l0.113-1.279c0.141,0.039,0.306,0.052,0.558,0.052c0.738,0,1.188-0.619,1.408-1.114
c0.081-0.165,0.051-0.283-0.025-0.466l-2.92-5.971H189.62z"/>
<path fill="#FFFFFF" d="M202.204,15.597v8.711h-1.596v-7.406h-2.377v2.33c0,2.078-0.195,3.979-1.461,4.783
c-0.384,0.215-0.944,0.414-1.554,0.414l-0.202-1.281c0.401-0.052,0.747-0.25,0.95-0.463c0.61-0.611,0.715-1.992,0.715-3.337v-3.751
H202.204z"/>
<path fill="#FFFFFF" d="M203.58,24.308c0.167-0.258,0.304-0.563,0.405-0.892c0.358-0.995,0.58-2.106,1.271-2.777
c0.188-0.194,0.449-0.35,0.723-0.438v-0.039c-1.029-0.185-1.876-0.906-1.876-2.134c0-0.787,0.335-1.41,0.847-1.813
c0.612-0.472,1.585-0.686,2.696-0.686c0.855,0,1.704,0.083,2.316,0.185v8.595h-1.583V20.73h-0.634c-0.458,0-0.799,0.111-1.067,0.374
c-0.58,0.571-0.814,1.745-1.09,2.521c-0.089,0.23-0.165,0.425-0.298,0.683H203.58z M208.379,16.826
c-0.169-0.041-0.473-0.091-0.914-0.091c-0.972,0-1.772,0.387-1.772,1.41c0,0.916,0.812,1.417,1.873,1.417
c0.311,0,0.623,0,0.813-0.024V16.826z"/>
<path fill="#FFFFFF" d="M212.106,15.713c0.581-0.102,1.367-0.185,2.433-0.185c1.159,0,1.995,0.25,2.56,0.711
c0.51,0.432,0.851,1.115,0.851,1.929c0,0.83-0.258,1.502-0.735,1.966c-0.645,0.636-1.63,0.941-2.755,0.941
c-0.3,0-0.551-0.008-0.772-0.063v3.296h-1.58V15.713z M213.687,19.762c0.202,0.065,0.449,0.074,0.772,0.074
c1.189,0,1.91-0.59,1.91-1.602c0-0.97-0.671-1.477-1.769-1.477c-0.441,0-0.745,0.042-0.914,0.079V19.762z"/>
<polygon fill="#FFFFFF" points="221.247,15.597 221.247,19.089 224.931,19.089 224.931,15.597 226.521,15.597 226.521,24.308
224.931,24.308 224.931,20.47 221.247,20.47 221.247,24.308 219.655,24.308 219.655,15.597 "/>
<path fill="#FFFFFF" d="M236.402,19.863c0,2.92-1.778,4.588-4.163,4.588c-2.471,0-4.024-1.883-4.024-4.429
c0-2.692,1.695-4.583,4.152-4.583C234.9,15.439,236.402,17.369,236.402,19.863 M229.901,19.977c0,1.786,0.89,3.196,2.416,3.196
c1.538,0,2.404-1.437,2.404-3.256c0-1.644-0.812-3.196-2.404-3.196C230.734,16.721,229.901,18.183,229.901,19.977"/>
<path fill="#FFFFFF" d="M239.569,15.597v3.078c0,1.381-0.024,2.663-0.103,3.827l0.039,0.008c0.452-0.977,1.008-2.026,1.58-3.01
l2.299-3.903H245v8.711h-1.472v-3.076c0-1.381,0.021-2.497,0.126-3.621h-0.039c-0.412,0.998-0.994,2.085-1.539,3.015l-2.205,3.683
h-1.778v-8.711H239.569z M240.874,13.67c0.041,0.466,0.169,0.799,0.67,0.799c0.476,0,0.639-0.32,0.685-0.799h1.12
c-0.083,1.006-0.713,1.513-1.839,1.513c-1.099,0-1.676-0.531-1.761-1.513H240.874z"/>
<path fill="#FFFFFF" d="M152.097,31.112v7.449l0.82,0.032l-0.091,3.391h-1.216l-0.085-2.156h-5.296l-0.091,2.156h-1.216
l-0.071-3.391l0.696-0.032c0.341-0.615,0.646-1.246,0.84-1.932c0.273-0.93,0.378-1.988,0.378-3.241v-2.276H152.097z M148.237,33.793
c0,1.188-0.13,2.264-0.415,3.174c-0.167,0.573-0.41,1.127-0.65,1.556h3.329V32.42h-2.264V33.793z"/>
<path fill="#FFFFFF" d="M155.976,31.114v3.073c0,1.385-0.028,2.665-0.11,3.831l0.043,0.01c0.451-0.981,1.005-2.031,1.574-3.008
l2.301-3.906h1.617v8.716h-1.47v-3.078c0-1.385,0.02-2.498,0.124-3.623h-0.037c-0.417,0.995-0.999,2.083-1.544,3.013l-2.207,3.688
h-1.77v-8.716H155.976z"/>
<path fill="#FFFFFF" d="M165.29,37.354l-0.751,2.474h-1.635l2.787-8.716h2.038l2.822,8.716h-1.715l-0.79-2.474H165.29z
M167.79,36.157l-0.686-2.151c-0.167-0.525-0.311-1.124-0.438-1.627h-0.028c-0.133,0.503-0.271,1.111-0.414,1.627l-0.671,2.151
H167.79z"/>
<polygon fill="#FFFFFF" points="177.074,31.114 177.074,32.418 173.682,32.418 173.682,39.83 172.093,39.83 172.093,31.114 "/>
<polygon fill="#FFFFFF" points="180.002,31.114 180.002,34.604 183.697,34.604 183.697,31.114 185.283,31.114 185.283,39.83
183.697,39.83 183.697,35.982 180.002,35.982 180.002,39.83 178.42,39.83 178.42,31.114 "/>
<path fill="#FFFFFF" d="M195.162,35.374c0,2.931-1.767,4.594-4.165,4.594c-2.464,0-4.019-1.885-4.019-4.438
c0-2.688,1.693-4.575,4.15-4.575C193.662,30.954,195.162,32.882,195.162,35.374 M188.656,35.495c0,1.782,0.891,3.192,2.421,3.192
c1.534,0,2.4-1.431,2.4-3.261c0-1.634-0.808-3.192-2.4-3.192C189.499,32.234,188.656,33.699,188.656,35.495"/>
<path fill="#FFFFFF" d="M203.103,39.582c-0.376,0.18-1.205,0.386-2.265,0.386c-2.768,0-4.449-1.728-4.449-4.397
c0-2.864,2.008-4.6,4.669-4.6c1.046,0,1.782,0.223,2.107,0.388l-0.341,1.269c-0.41-0.183-0.989-0.341-1.699-0.341
c-1.773,0-3.055,1.117-3.055,3.209c0,1.928,1.112,3.143,3.042,3.143c0.629,0,1.302-0.128,1.728-0.313L203.103,39.582z"/>
<polygon fill="#FFFFFF" points="206.788,32.444 204.305,32.444 204.305,31.114 210.882,31.114 210.882,32.444 208.375,32.444
208.375,39.828 206.788,39.828 "/>
<path fill="#FFFFFF" d="M213.704,31.114v3.073c0,1.385-0.028,2.665-0.103,3.831l0.035,0.01c0.451-0.981,1.016-2.031,1.58-3.008
l2.299-3.906h1.617v8.716h-1.477v-3.078c0-1.385,0.024-2.498,0.135-3.623h-0.039c-0.419,0.995-0.996,2.083-1.541,3.013l-2.21,3.688
h-1.769v-8.716H213.704z"/>
<path fill="#FFFFFF" d="M222.842,31.114v3.733h0.248l2.681-3.733h1.905l-3.151,3.929c1.268,0.231,1.8,1.06,2.203,2.158
c0.325,0.918,0.582,1.801,0.981,2.629H226c-0.31-0.595-0.503-1.32-0.725-1.98c-0.352-1.063-0.812-1.828-2.07-1.828h-0.363v3.809
h-1.578v-8.716H222.842z"/>
<path fill="#FFFFFF" d="M230.537,31.114v3.073c0,1.385-0.02,2.665-0.106,3.831l0.043,0.01c0.45-0.981,1.012-2.031,1.578-3.008
l2.299-3.906h1.615v8.716h-1.476v-3.078c0-1.385,0.032-2.498,0.132-3.623h-0.034c-0.413,0.995-0.994,2.083-1.539,3.013l-2.215,3.688
h-1.773v-8.716H230.537z"/>
<path fill="#FFFFFF" d="M84.928,0.022H46.294c-0.349,0-0.623,0.279-0.623,0.624V39.28c0,0.343,0.274,0.625,0.623,0.625h38.634
c0.349,0,0.624-0.282,0.624-0.625V0.646C85.552,0.302,85.277,0.022,84.928,0.022"/>
<path fill="#FFFFFF" d="M131.204,18.263c-0.803-9.761-8.485-17.434-18.336-18.245L91.949,0.023c-0.347,0-0.623,0.278-0.623,0.623
V39.28c0,0.343,0.276,0.625,0.623,0.625h20.937c0.016,0,0.035-0.002,0.048-0.002c9.787-0.813,17.473-8.502,18.275-18.34
L131.204,18.263z"/>
<path fill="#FFFFFF" d="M39.894,0.646c-0.004-0.345-0.28-0.623-0.625-0.623L18.245,0.027C8.474,0.822,0.801,8.515,0,18.366
l0.006,3.297c0.797,9.772,8.488,17.438,18.289,18.242c0.013,0.003,0.036,0.003,0.047,0.003l20.92-0.003
c0.346,0,0.627-0.282,0.627-0.625c0-4.221,0.009-8.447,0.012-12.67C39.913,18.619,39.923,9.56,39.894,0.646"/>
<path fill="#00B388" d="M33.099,26.237c-0.437,0.725-0.953,1.406-1.532,2.029c-0.729,0.789-1.565,1.476-2.476,2.044
c-0.917,0.571-1.93,1.018-3.003,1.328c-1.074,0.308-2.211,0.463-3.37,0.463c-1.674,0-3.262-0.319-4.725-0.954
c-1.479-0.634-2.776-1.515-3.865-2.596c-1.091-1.089-1.965-2.387-2.593-3.856c-0.638-1.474-0.958-3.064-0.958-4.731
c0-1.643,0.32-3.225,0.958-4.694c0.628-1.47,1.502-2.771,2.6-3.87c1.091-1.104,2.387-1.982,3.852-2.618
c1.47-0.631,3.067-0.952,4.732-0.952c1.124,0,2.231,0.149,3.284,0.453c1.045,0.298,2.035,0.723,2.936,1.271
c0.902,0.541,1.726,1.207,2.444,1.962c0.566,0.593,1.07,1.247,1.515,1.937c0.093,0.145,0.116,0.324,0.075,0.498
c-0.044,0.161-0.16,0.305-0.311,0.388l-0.652,0.35c-0.317,0.168-0.621,0.32-0.912,0.47l-0.975,0.486
c-0.242,0.118-0.521,0.263-0.867,0.427c-0.274,0.132-0.612,0.045-0.786-0.214c-0.559-0.823-1.298-1.505-2.201-2.044
c-1.07-0.634-2.259-0.951-3.551-0.951c-0.979,0-1.909,0.19-2.771,0.567c-0.859,0.381-1.616,0.894-2.26,1.527
c-0.646,0.632-1.161,1.396-1.524,2.261c-0.37,0.871-0.557,1.796-0.557,2.748c0,0.981,0.187,1.909,0.557,2.767
c0.363,0.86,0.878,1.623,1.524,2.264c0.646,0.646,1.407,1.161,2.262,1.527c0.861,0.364,1.791,0.554,2.77,0.554
c1.333,0,2.567-0.341,3.674-1.027c0.932-0.569,1.698-1.315,2.275-2.209c0.176-0.268,0.523-0.362,0.813-0.216l0.831,0.434
c0.354,0.178,0.666,0.347,0.954,0.504c0.296,0.158,0.593,0.313,0.909,0.468c0.182,0.092,0.408,0.195,0.663,0.321
c0.158,0.078,0.281,0.215,0.331,0.386C33.215,25.904,33.196,26.089,33.099,26.237"/>
<path fill="#00A9E0" d="M77.982,31.313c0,0.345-0.273,0.623-0.626,0.623h-3.207c-0.343,0-0.627-0.278-0.627-0.623V14.968
l-5.789,16.546c-0.084,0.253-0.318,0.422-0.593,0.422h-3.167c-0.258,0-0.497-0.169-0.584-0.418l-5.721-16.38
c0.004,0.022-0.052,0-0.071,0v16.175c0,0.345-0.279,0.623-0.627,0.623h-3.106c-0.346,0-0.632-0.278-0.632-0.623V8.618
c0-0.342,0.286-0.624,0.632-0.624h5.762c0.269,0,0.509,0.177,0.593,0.427l5.327,16.169l5.358-16.169
c0.081-0.25,0.321-0.427,0.594-0.427h5.858c0.353,0,0.626,0.282,0.626,0.624V31.313z"/>
<path fill="#00A9E0" d="M120.159,14.633c-0.548-1.47-1.313-2.712-2.28-3.688c-0.969-0.981-2.136-1.725-3.45-2.213
c-1.321-0.486-2.774-0.737-4.314-0.737h-9.703c-0.346,0-0.621,0.282-0.621,0.624v22.694c0,0.345,0.274,0.623,0.621,0.623h9.703
c1.823,0,3.432-0.313,4.782-0.923c1.347-0.615,2.485-1.462,3.386-2.531c0.898-1.07,1.583-2.355,2.03-3.823
c0.445-1.474,0.667-3.095,0.667-4.828C120.979,17.855,120.699,16.104,120.159,14.633 M115.214,23.688
c-0.335,0.91-0.786,1.657-1.34,2.226c-0.558,0.568-1.204,0.981-1.917,1.226c-0.711,0.244-1.453,0.371-2.21,0.371h-4.695V12.42h3.751
c1.292,0,2.397,0.182,3.274,0.551c0.874,0.366,1.594,0.908,2.13,1.596c0.533,0.688,0.922,1.527,1.159,2.5
c0.229,0.969,0.35,2.067,0.35,3.265C115.716,21.646,115.543,22.775,115.214,23.688"/>
</svg>
