<svg xmlns="http://www.w3.org/2000/svg" width="40px" height="40px" viewBox="0 0 40 40">
<ellipse fill="#CB369B" cx="19.962" cy="19.925" rx="3.32" ry="3.31"/>
<path fill="#CB369B" d="M25.32,15.789c-0.68,0-1.207-0.526-1.207-1.203c0-0.676,0.527-1.203,1.207-1.203s1.208,0.526,1.208,1.203
C26.528,15.263,26,15.789,25.32,15.789z M19.962,25.037c-2.868,0-5.132-2.331-5.132-5.112c0-2.857,2.34-5.113,5.132-5.113
c2.793,0,5.207,2.255,5.207,5.113C25.169,22.781,22.83,25.037,19.962,25.037z M24.113,11.805h-8.303
c-1.207,0-2.264,0.376-2.942,1.052s-1.057,1.729-1.057,2.932v8.271c0,1.204,0.378,2.256,1.132,3.008
c0.755,0.677,1.735,1.053,2.943,1.053h8.227c1.207,0,2.264-0.376,2.943-1.053c0.754-0.676,1.132-1.729,1.132-2.933v-8.27
c0-1.203-0.378-2.181-1.056-2.932C26.377,12.181,25.396,11.805,24.113,11.805z"/>
<path fill="#CB369B" d="M20,0C8.943,0,0,8.944,0,20c0,11.057,8.943,20,20,20c11.057,0,20-8.943,20-20C40.08,8.944,31.057,0,20,0z
 M30,24.135c0,1.73-0.604,3.233-1.661,4.286C27.283,29.474,25.773,30,24.113,30h-8.227c-1.66,0-3.17-0.526-4.227-1.579
C10.528,27.368,10,25.865,10,24.135v-8.27C10,12.405,12.34,10,15.887,10h8.302c1.735,0,3.171,0.601,4.227,1.654S30,14.135,30,15.865
V24.135z"/>
</svg>
