<svg xmlns="http://www.w3.org/2000/svg" width="46px" height="66px" viewBox="0 0 46 66">
<path fill="#00A9E0" d="M45,23.296c0,16.958-21.998,41.269-21.998,41.269S1,39.69,1,23.296C1,11.221,10.85,1.435,23.002,1.435
C35.149,1.435,45,11.221,45,23.296"/>
<path fill="#94E5FF" d="M23.002,65.564c-0.002,0-0.004,0-0.006,0c-0.284-0.002-0.555-0.124-0.743-0.338
C21.344,64.2,0,39.879,0,23.296C0,10.69,10.319,0.435,23.002,0.435C35.684,0.435,46,10.69,46,23.296
c0,17.146-21.348,40.936-22.256,41.939C23.554,65.445,23.284,65.564,23.002,65.564z M23.002,2.435C11.421,2.435,2,11.793,2,23.296
c0,14.143,17.196,35.239,21.01,39.743C26.839,58.606,44,37.919,44,23.296C44,11.793,34.58,2.435,23.002,2.435z"/>
<path fill="#FFFFFF" d="M16.53,18.142c0-0.08-0.064-0.152-0.156-0.152l-5.29,0.004C8.635,18.19,6.702,20.124,6.5,22.605l0.006,0.821
c0.196,2.466,2.129,4.393,4.595,4.586c0,0.003,0.015,0.003,0.016,0.003l5.252-0.003c0.097,0,0.161-0.065,0.161-0.154
c0-1.063,0-2.124,0-3.183C16.538,22.67,16.547,20.382,16.53,18.142z M14.823,24.587c-0.113,0.178-0.242,0.354-0.387,0.5
c-0.177,0.209-0.387,0.372-0.615,0.516c-0.239,0.145-0.491,0.258-0.754,0.338c-0.274,0.081-0.564,0.113-0.854,0.113
c-0.419,0-0.822-0.08-1.192-0.238s-0.693-0.374-0.967-0.648c-0.274-0.273-0.499-0.602-0.649-0.968
c-0.159-0.371-0.239-0.772-0.239-1.191s0.081-0.818,0.239-1.186c0.15-0.366,0.375-0.699,0.649-0.974
c0.274-0.273,0.597-0.499,0.967-0.66c0.371-0.161,0.773-0.242,1.192-0.242c0.29,0,0.564,0.049,0.822,0.116
c0.273,0.077,0.515,0.19,0.741,0.319c0.226,0.145,0.435,0.306,0.612,0.499c0.145,0.146,0.274,0.307,0.387,0.483
c0.021,0.032,0.032,0.081,0.016,0.129c-0.01,0.034-0.032,0.08-0.081,0.097l-0.161,0.082c-0.081,0.047-0.156,0.081-0.226,0.128
l-0.242,0.112c-0.064,0.032-0.133,0.067-0.226,0.113c-0.064,0.032-0.147,0.016-0.193-0.049c-0.145-0.209-0.323-0.387-0.554-0.516
c-0.268-0.161-0.574-0.241-0.896-0.241c-0.242,0-0.483,0.048-0.693,0.145c-0.221,0.097-0.404,0.226-0.568,0.383
c-0.166,0.153-0.297,0.343-0.383,0.568c-0.097,0.215-0.145,0.451-0.145,0.692c0,0.242,0.048,0.479,0.145,0.693
c0.085,0.21,0.217,0.402,0.383,0.563c0.165,0.161,0.352,0.292,0.568,0.387c0.209,0.097,0.451,0.146,0.693,0.146
c0.338,0,0.645-0.092,0.924-0.258c0.236-0.146,0.43-0.339,0.575-0.564c0.048-0.064,0.129-0.083,0.209-0.048l0.208,0.112
c0.083,0.035,0.163,0.081,0.235,0.122c0.073,0.039,0.153,0.073,0.234,0.12c0.042,0.016,0.097,0.048,0.161,0.08
c0.041,0.017,0.068,0.049,0.081,0.097C14.855,24.497,14.855,24.539,14.823,24.587z"/>
<path fill="#FFFFFF" d="M27.85,17.988h-9.708c-0.08,0-0.16,0.073-0.16,0.153v9.717c0,0.089,0.08,0.154,0.16,0.154h9.708
c0.098,0,0.162-0.065,0.162-0.154v-9.717C28.012,18.062,27.947,17.988,27.85,17.988z M26.109,25.86c0,0.082-0.064,0.161-0.16,0.161
h-0.807c-0.079,0-0.16-0.079-0.16-0.161v-4.109l-1.451,4.157c-0.021,0.064-0.066,0.113-0.147,0.113h-0.795
c-0.064,0-0.129-0.049-0.145-0.113l-1.436-4.121c0.001,0.013-0.015,0-0.022,0v4.073c0,0.082-0.074,0.161-0.154,0.161h-0.79
c-0.08,0-0.16-0.079-0.16-0.161v-5.704c0-0.097,0.08-0.161,0.16-0.161h1.45c0.065,0,0.129,0.048,0.15,0.109l1.341,4.063l1.354-4.063
c0.014-0.062,0.064-0.109,0.144-0.109h1.468c0.096,0,0.16,0.064,0.16,0.161V25.86z"/>
<path fill="#FFFFFF" d="M35.23,21.646c-0.131-0.169-0.322-0.314-0.549-0.397c-0.225-0.094-0.482-0.143-0.806-0.143H32.91v3.798
h1.191c0.193,0,0.387-0.031,0.549-0.092c0.193-0.064,0.354-0.169,0.482-0.307c0.15-0.145,0.258-0.338,0.355-0.563
c0.064-0.226,0.122-0.516,0.122-0.847c0-0.297-0.026-0.571-0.091-0.819C35.455,22.025,35.359,21.815,35.23,21.646z"/>
<path fill="#FFFFFF" d="M39.496,22.573c-0.205-2.449-2.139-4.383-4.62-4.589l-5.253,0.005c-0.093,0-0.162,0.072-0.162,0.152v9.717
c0,0.089,0.069,0.154,0.162,0.154h5.27c0.015,0,0.016-0.001,0.016-0.001c2.449-0.192,4.383-2.133,4.592-4.601L39.496,22.573z
M36.756,24.185c-0.107,0.37-0.271,0.692-0.497,0.967c-0.229,0.26-0.513,0.483-0.868,0.628c-0.322,0.161-0.74,0.242-1.191,0.242
H31.75c-0.087,0-0.162-0.079-0.162-0.161v-5.704c0-0.097,0.075-0.161,0.162-0.161h2.449c0.387,0,0.74,0.064,1.084,0.181
c0.334,0.125,0.623,0.318,0.861,0.561c0.246,0.241,0.439,0.562,0.568,0.929c0.143,0.368,0.225,0.812,0.225,1.311
C36.938,23.411,36.873,23.813,36.756,24.185z"/>
</svg>
