<svg xmlns="http://www.w3.org/2000/svg" width="40px" height="40px" viewBox="0 0 40 40">
<path fill="#EE8208" d="M20,12.333c-1.267,0-2.333,1.066-2.333,2.333S18.733,17,20,17s2.333-1.067,2.333-2.333
S21.267,12.333,20,12.333z"/>
<path fill="#EE8208" d="M20,0C8.917,0,0,8.917,0,20c0,11.084,8.917,20,20,20c11.084,0,20-8.916,20-20C40,8.917,31.084,0,20,0z
 M20,10c2.6,0,4.667,2.067,4.667,4.667c0,2.6-2.067,4.667-4.667,4.667c-2.6,0-4.667-2.067-4.667-4.667C15.333,12.067,17.4,10,20,10z
 M25.333,22.467C24.533,22.934,22,24,22,24l2.8,3.6c0,0,0.533,0.667,0.533,1.067C25.333,29.4,24.733,30,24,30
c-0.667,0-1-0.467-1-0.467L20,26l-3.067,3.533c0,0-0.333,0.467-1,0.467C15.2,30,14.6,29.4,14.6,28.667
c0-0.467,0.533-1.067,0.533-1.067L18,24c0,0-2.533-1.066-3.333-1.533C14.4,22.333,14,22,14,21.333C14,20.6,14.6,20,15.333,20
c0.667,0,2,1.333,4.667,1.333c2.667,0,4-1.333,4.667-1.333C25.4,20,26,20.6,26,21.333C26,22,25.6,22.267,25.333,22.467z"/>
</svg>
