<svg xmlns="http://www.w3.org/2000/svg" width="40px" height="40px" viewBox="0 0 40 40">
<path fill="#4A76A8" d="M20,0C8.955,0,0,8.955,0,20c0,11.046,8.955,20,20,20c11.046,0,20-8.954,20-20C40,8.955,31.046,0,20,0z
 M27.85,23.369c1.682,1.556,2.031,2.318,2.088,2.412c0.7,1.156-0.769,1.244-0.769,1.244l-2.807,0.037c0,0-0.6,0.119-1.394-0.425
c-1.05-0.726-2.044-2.594-2.813-2.351c-0.781,0.244-0.756,1.932-0.756,1.932s0.006,0.356-0.176,0.55
c-0.193,0.206-0.575,0.25-0.575,0.25h-1.256c0,0-2.769,0.169-5.225-2.362c-2.663-2.769-5.013-8.269-5.013-8.269
s-0.131-0.363,0.013-0.538c0.168-0.194,0.619-0.207,0.619-0.207l3-0.019c0,0,0.281,0.044,0.487,0.194
c0.169,0.119,0.263,0.35,0.263,0.35s0.481,1.225,1.125,2.337c1.25,2.163,1.837,2.637,2.262,2.406
c0.625-0.337,0.438-3.063,0.438-3.063s0.013-0.994-0.313-1.431c-0.25-0.338-0.725-0.444-0.931-0.469
c-0.168-0.019,0.113-0.413,0.469-0.588c0.544-0.269,1.5-0.281,2.625-0.269c0.881,0.006,1.131,0.063,1.475,0.144
c1.031,0.25,0.682,1.219,0.682,3.531c0,0.744-0.138,1.781,0.399,2.131c0.231,0.144,0.794,0.019,2.2-2.369
c0.669-1.131,1.169-2.462,1.169-2.462s0.112-0.238,0.281-0.337c0.175-0.1,0.406-0.069,0.406-0.069l3.162-0.019
c0,0,0.944-0.119,1.101,0.313c0.162,0.45-0.351,1.5-1.645,3.219C26.325,22,26.094,21.737,27.85,23.369z"/>
</svg>
