<svg xmlns="http://www.w3.org/2000/svg" width="40px" height="40px" viewBox="0 0 40 40">
<path fill="#EB443E" d="M22.931,19.568l-4.051-2.931c-0.173-0.085-0.345-0.085-0.518,0c-0.172,0.086-0.259,0.259-0.259,0.432v5.861
c0,0.174,0.087,0.346,0.259,0.431c0.086,0.087,0.173,0.087,0.258,0.087c0.087,0,0.174,0,0.26-0.087l4.051-2.93
c0.174-0.087,0.26-0.259,0.174-0.432C23.104,19.828,23.017,19.655,22.931,19.568z"/>
<path fill="#EB443E" d="M20,0C8.955,0,0,8.955,0,20c0,11.046,8.955,20,20,20c11.046,0,20-8.954,20-20C40,8.955,31.046,0,20,0z
 M29.655,24.741c-0.086,0.087-0.086,0.173-0.086,0.259v0.087c-0.258,0.774-0.948,1.293-1.811,1.293h0.173
c0,0-3.448,0.517-7.932,0.517c-4.568,0-7.931-0.517-7.931-0.517h0.172c-0.861,0-1.552-0.519-1.81-1.293V25
c-0.087-0.086-0.087-0.172-0.087-0.259C10.259,23.88,10,22.069,10,20c0-2.069,0.259-3.879,0.345-4.741
c0.087-0.086,0.087-0.172,0.087-0.259v-0.086c0.258-0.776,0.948-1.293,1.81-1.293h-0.172c0,0,3.448-0.518,7.931-0.518
c4.568,0,7.932,0.518,7.932,0.518h-0.173c0.862,0,1.553,0.517,1.811,1.293V15c0.086,0.087,0.086,0.172,0.086,0.259
C29.827,16.121,30,17.931,30,20C30,22.069,29.741,23.88,29.655,24.741z"/>
</svg>
